# xmcd
#
# Track frame offsets: 
#        150
#        1844
#        14150
#        29323
#        42511
#        60893
#        76238
#        90327
#        103705
#        115501
#        129007
#        141212
#        156156
#        166504
#
# Disc length: 2415 seconds
#
# Revision: 7
# Processed by: cddbd v1.5.2PL0 Copyright (c) Steve Scherf et al.
# Submitted via: ExactAudioCopy v0.99pb4
#
DISCID=96096d0e
DTITLE=Sportfreunde Stiller - Burli
DYEAR=2004
DGENRE=Rock
TTITLE0=Intro
TTITLE1=Lauth anhören
TTITLE2=Ein kleiner Schritt
TTITLE3=Ungewöhnlich
TTITLE4=Siehst du das genauso?
TTITLE5=Frühling
TTITLE6=Im Namen der Freundschaft
TTITLE7=Andere Mütter
TTITLE8=Wir kommen (Was hier los ist!!!)
TTITLE9=Was ich behaupten kann
TTITLE10=Dirk, wie ist die Luft dort oben?
TTITLE11=Ich, Roque
TTITLE12=1.Wahl
TTITLE13=1.Wahl 2.Wahl
EXTD=YEAR: 2004
EXTT0=
EXTT1=
EXTT2=
EXTT3=
EXTT4=
EXTT5=
EXTT6=
EXTT7=
EXTT8=
EXTT9=
EXTT10=
EXTT11=
EXTT12=
EXTT13=
PLAYORDER=
